<mxfile host="app.diagrams.net" agent="Mozilla/5.0 (Windows NT 10.0; Win64; x64) AppleWebKit/537.36 (KHTML, like Gecko) Chrome/135.0.0.0 Safari/537.36" version="26.2.14">
  <diagram name="Seite-1" id="k4swkWECHW3XGGicv4eO">
    <mxGraphModel dx="2253" dy="743" grid="1" gridSize="10" guides="1" tooltips="1" connect="1" arrows="1" fold="1" page="1" pageScale="1" pageWidth="827" pageHeight="1169" math="0" shadow="0">
      <root>
        <mxCell id="0" />
        <mxCell id="1" parent="0" />
        <mxCell id="hMOZLWpCoQ75Md5HRvst-26" value="" style="group" vertex="1" connectable="0" parent="1">
          <mxGeometry x="-350" y="170" width="500" height="460" as="geometry" />
        </mxCell>
        <mxCell id="hMOZLWpCoQ75Md5HRvst-3" value="load Config Subroutine" style="shape=process;whiteSpace=wrap;html=1;backgroundOutline=1;align=left;verticalAlign=top;" vertex="1" parent="hMOZLWpCoQ75Md5HRvst-26">
          <mxGeometry width="500" height="460" as="geometry" />
        </mxCell>
        <mxCell id="hMOZLWpCoQ75Md5HRvst-4" value="" style="rounded=0;whiteSpace=wrap;html=1;" vertex="1" parent="hMOZLWpCoQ75Md5HRvst-26">
          <mxGeometry x="150" y="40" width="200" height="20" as="geometry" />
        </mxCell>
        <mxCell id="hMOZLWpCoQ75Md5HRvst-6" value="load IPMap" style="whiteSpace=wrap;html=1;aspect=fixed;" vertex="1" parent="hMOZLWpCoQ75Md5HRvst-26">
          <mxGeometry x="150" y="80" width="80" height="80" as="geometry" />
        </mxCell>
        <mxCell id="hMOZLWpCoQ75Md5HRvst-7" value="load PACs" style="whiteSpace=wrap;html=1;aspect=fixed;" vertex="1" parent="hMOZLWpCoQ75Md5HRvst-26">
          <mxGeometry x="270" y="80" width="80" height="80" as="geometry" />
        </mxCell>
        <mxCell id="hMOZLWpCoQ75Md5HRvst-9" value="" style="rounded=0;whiteSpace=wrap;html=1;" vertex="1" parent="hMOZLWpCoQ75Md5HRvst-26">
          <mxGeometry x="150" y="180" width="200" height="20" as="geometry" />
        </mxCell>
        <mxCell id="hMOZLWpCoQ75Md5HRvst-13" value="" style="endArrow=classic;html=1;rounded=0;entryX=0.5;entryY=0;entryDx=0;entryDy=0;exitX=0.25;exitY=1;exitDx=0;exitDy=0;" edge="1" parent="hMOZLWpCoQ75Md5HRvst-26" source="hMOZLWpCoQ75Md5HRvst-4" target="hMOZLWpCoQ75Md5HRvst-6">
          <mxGeometry width="50" height="50" relative="1" as="geometry">
            <mxPoint x="720" y="350" as="sourcePoint" />
            <mxPoint x="770" y="300" as="targetPoint" />
          </mxGeometry>
        </mxCell>
        <mxCell id="hMOZLWpCoQ75Md5HRvst-14" value="" style="endArrow=classic;html=1;rounded=0;entryX=0.5;entryY=0;entryDx=0;entryDy=0;exitX=0.75;exitY=1;exitDx=0;exitDy=0;" edge="1" parent="hMOZLWpCoQ75Md5HRvst-26" source="hMOZLWpCoQ75Md5HRvst-4" target="hMOZLWpCoQ75Md5HRvst-7">
          <mxGeometry width="50" height="50" relative="1" as="geometry">
            <mxPoint x="210" y="70" as="sourcePoint" />
            <mxPoint x="200" y="90" as="targetPoint" />
          </mxGeometry>
        </mxCell>
        <mxCell id="hMOZLWpCoQ75Md5HRvst-16" value="" style="endArrow=classic;html=1;rounded=0;exitX=0.5;exitY=1;exitDx=0;exitDy=0;entryX=0.25;entryY=0;entryDx=0;entryDy=0;" edge="1" parent="hMOZLWpCoQ75Md5HRvst-26" source="hMOZLWpCoQ75Md5HRvst-6" target="hMOZLWpCoQ75Md5HRvst-9">
          <mxGeometry width="50" height="50" relative="1" as="geometry">
            <mxPoint x="610" y="290" as="sourcePoint" />
            <mxPoint x="660" y="240" as="targetPoint" />
          </mxGeometry>
        </mxCell>
        <mxCell id="hMOZLWpCoQ75Md5HRvst-19" value="" style="endArrow=classic;html=1;rounded=0;entryX=0.75;entryY=0;entryDx=0;entryDy=0;exitX=0.5;exitY=1;exitDx=0;exitDy=0;" edge="1" parent="hMOZLWpCoQ75Md5HRvst-26" source="hMOZLWpCoQ75Md5HRvst-7" target="hMOZLWpCoQ75Md5HRvst-9">
          <mxGeometry width="50" height="50" relative="1" as="geometry">
            <mxPoint x="610" y="290" as="sourcePoint" />
            <mxPoint x="660" y="240" as="targetPoint" />
          </mxGeometry>
        </mxCell>
        <mxCell id="hMOZLWpCoQ75Md5HRvst-20" value="convert Array to Tree" style="rounded=0;whiteSpace=wrap;html=1;" vertex="1" parent="hMOZLWpCoQ75Md5HRvst-26">
          <mxGeometry x="190" y="300" width="120" height="60" as="geometry" />
        </mxCell>
        <mxCell id="hMOZLWpCoQ75Md5HRvst-21" value="build Array of LookupElements" style="rounded=0;whiteSpace=wrap;html=1;" vertex="1" parent="hMOZLWpCoQ75Md5HRvst-26">
          <mxGeometry x="190" y="220" width="120" height="60" as="geometry" />
        </mxCell>
        <mxCell id="hMOZLWpCoQ75Md5HRvst-22" value="" style="endArrow=classic;html=1;rounded=0;entryX=0.5;entryY=0;entryDx=0;entryDy=0;exitX=0.5;exitY=1;exitDx=0;exitDy=0;" edge="1" parent="hMOZLWpCoQ75Md5HRvst-26" source="hMOZLWpCoQ75Md5HRvst-9" target="hMOZLWpCoQ75Md5HRvst-21">
          <mxGeometry width="50" height="50" relative="1" as="geometry">
            <mxPoint x="580" y="290" as="sourcePoint" />
            <mxPoint x="630" y="240" as="targetPoint" />
          </mxGeometry>
        </mxCell>
        <mxCell id="hMOZLWpCoQ75Md5HRvst-23" value="" style="endArrow=classic;html=1;rounded=0;entryX=0.5;entryY=0;entryDx=0;entryDy=0;exitX=0.5;exitY=1;exitDx=0;exitDy=0;" edge="1" parent="hMOZLWpCoQ75Md5HRvst-26" source="hMOZLWpCoQ75Md5HRvst-21" target="hMOZLWpCoQ75Md5HRvst-20">
          <mxGeometry width="50" height="50" relative="1" as="geometry">
            <mxPoint x="580" y="290" as="sourcePoint" />
            <mxPoint x="630" y="240" as="targetPoint" />
          </mxGeometry>
        </mxCell>
        <mxCell id="hMOZLWpCoQ75Md5HRvst-24" value="return amount of minor Problems found" style="rounded=0;whiteSpace=wrap;html=1;" vertex="1" parent="hMOZLWpCoQ75Md5HRvst-26">
          <mxGeometry x="190" y="380" width="120" height="60" as="geometry" />
        </mxCell>
        <mxCell id="hMOZLWpCoQ75Md5HRvst-25" value="" style="endArrow=classic;html=1;rounded=0;entryX=0.5;entryY=0;entryDx=0;entryDy=0;exitX=0.5;exitY=1;exitDx=0;exitDy=0;" edge="1" parent="hMOZLWpCoQ75Md5HRvst-26" source="hMOZLWpCoQ75Md5HRvst-20" target="hMOZLWpCoQ75Md5HRvst-24">
          <mxGeometry width="50" height="50" relative="1" as="geometry">
            <mxPoint x="700" y="350" as="sourcePoint" />
            <mxPoint x="750" y="300" as="targetPoint" />
          </mxGeometry>
        </mxCell>
        <mxCell id="hMOZLWpCoQ75Md5HRvst-81" style="edgeStyle=orthogonalEdgeStyle;rounded=0;orthogonalLoop=1;jettySize=auto;html=1;exitX=1;exitY=0.5;exitDx=0;exitDy=0;entryX=0;entryY=0.5;entryDx=0;entryDy=0;" edge="1" parent="1" source="hMOZLWpCoQ75Md5HRvst-28" target="hMOZLWpCoQ75Md5HRvst-32">
          <mxGeometry relative="1" as="geometry" />
        </mxCell>
        <mxCell id="hMOZLWpCoQ75Md5HRvst-28" value="load Config" style="rounded=0;whiteSpace=wrap;html=1;" vertex="1" parent="1">
          <mxGeometry x="314" y="180" width="120" height="60" as="geometry" />
        </mxCell>
        <mxCell id="hMOZLWpCoQ75Md5HRvst-30" value="" style="endArrow=classic;html=1;rounded=0;exitX=0;exitY=0.25;exitDx=0;exitDy=0;entryX=0.998;entryY=0.054;entryDx=0;entryDy=0;entryPerimeter=0;" edge="1" parent="1" source="hMOZLWpCoQ75Md5HRvst-28" target="hMOZLWpCoQ75Md5HRvst-3">
          <mxGeometry width="50" height="50" relative="1" as="geometry">
            <mxPoint x="290" y="380" as="sourcePoint" />
            <mxPoint x="150" y="200" as="targetPoint" />
          </mxGeometry>
        </mxCell>
        <mxCell id="hMOZLWpCoQ75Md5HRvst-31" value="" style="endArrow=classic;html=1;rounded=0;entryX=0;entryY=0.5;entryDx=0;entryDy=0;exitX=0.998;exitY=0.087;exitDx=0;exitDy=0;exitPerimeter=0;" edge="1" parent="1" source="hMOZLWpCoQ75Md5HRvst-3" target="hMOZLWpCoQ75Md5HRvst-28">
          <mxGeometry width="50" height="50" relative="1" as="geometry">
            <mxPoint x="210" y="290" as="sourcePoint" />
            <mxPoint x="260" y="240" as="targetPoint" />
          </mxGeometry>
        </mxCell>
        <mxCell id="hMOZLWpCoQ75Md5HRvst-82" style="edgeStyle=orthogonalEdgeStyle;rounded=0;orthogonalLoop=1;jettySize=auto;html=1;exitX=1;exitY=0.5;exitDx=0;exitDy=0;entryX=0;entryY=0.5;entryDx=0;entryDy=0;" edge="1" parent="1" source="hMOZLWpCoQ75Md5HRvst-32" target="hMOZLWpCoQ75Md5HRvst-34">
          <mxGeometry relative="1" as="geometry" />
        </mxCell>
        <mxCell id="hMOZLWpCoQ75Md5HRvst-84" style="edgeStyle=orthogonalEdgeStyle;rounded=0;orthogonalLoop=1;jettySize=auto;html=1;exitX=0.5;exitY=1;exitDx=0;exitDy=0;entryX=0.25;entryY=0;entryDx=0;entryDy=0;" edge="1" parent="1" source="hMOZLWpCoQ75Md5HRvst-32" target="hMOZLWpCoQ75Md5HRvst-44">
          <mxGeometry relative="1" as="geometry" />
        </mxCell>
        <mxCell id="hMOZLWpCoQ75Md5HRvst-32" value="minor Problems?" style="rhombus;whiteSpace=wrap;html=1;" vertex="1" parent="1">
          <mxGeometry x="500" y="170" width="80" height="80" as="geometry" />
        </mxCell>
        <mxCell id="hMOZLWpCoQ75Md5HRvst-83" style="edgeStyle=orthogonalEdgeStyle;rounded=0;orthogonalLoop=1;jettySize=auto;html=1;exitX=0.5;exitY=1;exitDx=0;exitDy=0;entryX=0.75;entryY=0;entryDx=0;entryDy=0;" edge="1" parent="1" source="hMOZLWpCoQ75Md5HRvst-34" target="hMOZLWpCoQ75Md5HRvst-44">
          <mxGeometry relative="1" as="geometry" />
        </mxCell>
        <mxCell id="hMOZLWpCoQ75Md5HRvst-34" value="ignoreMinors set?" style="rhombus;whiteSpace=wrap;html=1;" vertex="1" parent="1">
          <mxGeometry x="640" y="170" width="80" height="80" as="geometry" />
        </mxCell>
        <mxCell id="hMOZLWpCoQ75Md5HRvst-37" value="start" style="ellipse;whiteSpace=wrap;html=1;aspect=fixed;" vertex="1" parent="1">
          <mxGeometry x="334" y="60" width="80" height="80" as="geometry" />
        </mxCell>
        <mxCell id="hMOZLWpCoQ75Md5HRvst-39" value="exit" style="ellipse;whiteSpace=wrap;html=1;aspect=fixed;" vertex="1" parent="1">
          <mxGeometry x="570" y="680" width="80" height="80" as="geometry" />
        </mxCell>
        <mxCell id="hMOZLWpCoQ75Md5HRvst-43" value="" style="endArrow=classic;html=1;rounded=0;exitX=0.5;exitY=1;exitDx=0;exitDy=0;entryX=0.5;entryY=0;entryDx=0;entryDy=0;" edge="1" parent="1" source="hMOZLWpCoQ75Md5HRvst-37" target="hMOZLWpCoQ75Md5HRvst-28">
          <mxGeometry width="50" height="50" relative="1" as="geometry">
            <mxPoint x="300" y="380" as="sourcePoint" />
            <mxPoint x="350" y="330" as="targetPoint" />
          </mxGeometry>
        </mxCell>
        <mxCell id="hMOZLWpCoQ75Md5HRvst-85" style="edgeStyle=orthogonalEdgeStyle;rounded=0;orthogonalLoop=1;jettySize=auto;html=1;exitX=0.25;exitY=1;exitDx=0;exitDy=0;entryX=0.5;entryY=0;entryDx=0;entryDy=0;" edge="1" parent="1" source="hMOZLWpCoQ75Md5HRvst-44" target="hMOZLWpCoQ75Md5HRvst-48">
          <mxGeometry relative="1" as="geometry" />
        </mxCell>
        <mxCell id="hMOZLWpCoQ75Md5HRvst-86" style="edgeStyle=orthogonalEdgeStyle;rounded=0;orthogonalLoop=1;jettySize=auto;html=1;exitX=0.75;exitY=1;exitDx=0;exitDy=0;entryX=0.5;entryY=0;entryDx=0;entryDy=0;" edge="1" parent="1" source="hMOZLWpCoQ75Md5HRvst-44" target="hMOZLWpCoQ75Md5HRvst-76">
          <mxGeometry relative="1" as="geometry" />
        </mxCell>
        <mxCell id="hMOZLWpCoQ75Md5HRvst-44" value="start threads" style="rounded=0;whiteSpace=wrap;html=1;" vertex="1" parent="1">
          <mxGeometry x="500" y="300" width="220" height="30" as="geometry" />
        </mxCell>
        <mxCell id="hMOZLWpCoQ75Md5HRvst-89" style="edgeStyle=orthogonalEdgeStyle;rounded=0;orthogonalLoop=1;jettySize=auto;html=1;exitX=0.5;exitY=1;exitDx=0;exitDy=0;entryX=0.25;entryY=0;entryDx=0;entryDy=0;" edge="1" parent="1" source="hMOZLWpCoQ75Md5HRvst-48" target="hMOZLWpCoQ75Md5HRvst-78">
          <mxGeometry relative="1" as="geometry">
            <Array as="points">
              <mxPoint x="540" y="520" />
              <mxPoint x="555" y="520" />
            </Array>
          </mxGeometry>
        </mxCell>
        <mxCell id="hMOZLWpCoQ75Md5HRvst-90" style="edgeStyle=orthogonalEdgeStyle;rounded=0;orthogonalLoop=1;jettySize=auto;html=1;exitX=0;exitY=0.5;exitDx=0;exitDy=0;entryX=1;entryY=0.5;entryDx=0;entryDy=0;" edge="1" parent="1" source="hMOZLWpCoQ75Md5HRvst-48" target="hMOZLWpCoQ75Md5HRvst-49">
          <mxGeometry relative="1" as="geometry" />
        </mxCell>
        <mxCell id="hMOZLWpCoQ75Md5HRvst-48" value="MaxCacheAge set?" style="rhombus;whiteSpace=wrap;html=1;" vertex="1" parent="1">
          <mxGeometry x="500" y="370" width="80" height="80" as="geometry" />
        </mxCell>
        <mxCell id="hMOZLWpCoQ75Md5HRvst-91" style="edgeStyle=orthogonalEdgeStyle;rounded=0;orthogonalLoop=1;jettySize=auto;html=1;exitX=0.25;exitY=1;exitDx=0;exitDy=0;entryX=0.25;entryY=0;entryDx=0;entryDy=0;" edge="1" parent="1" source="hMOZLWpCoQ75Md5HRvst-49" target="hMOZLWpCoQ75Md5HRvst-50">
          <mxGeometry relative="1" as="geometry" />
        </mxCell>
        <mxCell id="hMOZLWpCoQ75Md5HRvst-49" value="wait MaxCacheAge Seconds" style="rounded=0;whiteSpace=wrap;html=1;" vertex="1" parent="1">
          <mxGeometry x="314" y="380" width="120" height="60" as="geometry" />
        </mxCell>
        <mxCell id="hMOZLWpCoQ75Md5HRvst-92" style="edgeStyle=orthogonalEdgeStyle;rounded=0;orthogonalLoop=1;jettySize=auto;html=1;exitX=0.75;exitY=0;exitDx=0;exitDy=0;entryX=0.75;entryY=1;entryDx=0;entryDy=0;" edge="1" parent="1" source="hMOZLWpCoQ75Md5HRvst-50" target="hMOZLWpCoQ75Md5HRvst-49">
          <mxGeometry relative="1" as="geometry" />
        </mxCell>
        <mxCell id="hMOZLWpCoQ75Md5HRvst-50" value="load Config" style="rounded=0;whiteSpace=wrap;html=1;" vertex="1" parent="1">
          <mxGeometry x="314" y="490" width="120" height="60" as="geometry" />
        </mxCell>
        <mxCell id="hMOZLWpCoQ75Md5HRvst-94" style="edgeStyle=orthogonalEdgeStyle;rounded=0;orthogonalLoop=1;jettySize=auto;html=1;exitX=1;exitY=0.75;exitDx=0;exitDy=0;entryX=1;entryY=0.25;entryDx=0;entryDy=0;" edge="1" parent="1" source="hMOZLWpCoQ75Md5HRvst-76" target="hMOZLWpCoQ75Md5HRvst-76">
          <mxGeometry relative="1" as="geometry">
            <mxPoint x="800" y="424.9230769230769" as="targetPoint" />
            <Array as="points">
              <mxPoint x="780" y="425" />
              <mxPoint x="780" y="395" />
            </Array>
          </mxGeometry>
        </mxCell>
        <mxCell id="hMOZLWpCoQ75Md5HRvst-106" style="edgeStyle=orthogonalEdgeStyle;rounded=0;orthogonalLoop=1;jettySize=auto;html=1;exitX=0.5;exitY=1;exitDx=0;exitDy=0;entryX=0.5;entryY=0;entryDx=0;entryDy=0;dashed=1;fillColor=#f8cecc;strokeColor=#b85450;" edge="1" parent="1" source="hMOZLWpCoQ75Md5HRvst-76" target="hMOZLWpCoQ75Md5HRvst-104">
          <mxGeometry relative="1" as="geometry" />
        </mxCell>
        <mxCell id="hMOZLWpCoQ75Md5HRvst-76" value="serve requests" style="rounded=0;whiteSpace=wrap;html=1;" vertex="1" parent="1">
          <mxGeometry x="620" y="380" width="120" height="60" as="geometry" />
        </mxCell>
        <mxCell id="hMOZLWpCoQ75Md5HRvst-93" style="edgeStyle=orthogonalEdgeStyle;rounded=0;orthogonalLoop=1;jettySize=auto;html=1;exitX=0.5;exitY=1;exitDx=0;exitDy=0;entryX=0.5;entryY=0;entryDx=0;entryDy=0;" edge="1" parent="1" source="hMOZLWpCoQ75Md5HRvst-78" target="hMOZLWpCoQ75Md5HRvst-39">
          <mxGeometry relative="1" as="geometry" />
        </mxCell>
        <mxCell id="hMOZLWpCoQ75Md5HRvst-78" value="" style="rounded=0;whiteSpace=wrap;html=1;" vertex="1" parent="1">
          <mxGeometry x="500" y="600" width="220" height="30" as="geometry" />
        </mxCell>
        <mxCell id="hMOZLWpCoQ75Md5HRvst-79" value="" style="endArrow=classic;html=1;rounded=0;exitX=0;exitY=0.25;exitDx=0;exitDy=0;entryX=1.002;entryY=0.728;entryDx=0;entryDy=0;entryPerimeter=0;" edge="1" parent="1" source="hMOZLWpCoQ75Md5HRvst-50" target="hMOZLWpCoQ75Md5HRvst-3">
          <mxGeometry width="50" height="50" relative="1" as="geometry">
            <mxPoint x="310" y="500" as="sourcePoint" />
            <mxPoint x="210" y="460" as="targetPoint" />
          </mxGeometry>
        </mxCell>
        <mxCell id="hMOZLWpCoQ75Md5HRvst-80" value="" style="endArrow=classic;html=1;rounded=0;entryX=0;entryY=0.5;entryDx=0;entryDy=0;exitX=0.997;exitY=0.763;exitDx=0;exitDy=0;exitPerimeter=0;" edge="1" parent="1" source="hMOZLWpCoQ75Md5HRvst-3" target="hMOZLWpCoQ75Md5HRvst-50">
          <mxGeometry width="50" height="50" relative="1" as="geometry">
            <mxPoint x="180" y="540" as="sourcePoint" />
            <mxPoint x="324" y="220" as="targetPoint" />
          </mxGeometry>
        </mxCell>
        <mxCell id="hMOZLWpCoQ75Md5HRvst-107" style="edgeStyle=orthogonalEdgeStyle;rounded=0;orthogonalLoop=1;jettySize=auto;html=1;exitX=0.5;exitY=1;exitDx=0;exitDy=0;entryX=0.75;entryY=0;entryDx=0;entryDy=0;dashed=1;fillColor=#f8cecc;strokeColor=#b85450;" edge="1" parent="1" source="hMOZLWpCoQ75Md5HRvst-104" target="hMOZLWpCoQ75Md5HRvst-78">
          <mxGeometry relative="1" as="geometry" />
        </mxCell>
        <mxCell id="hMOZLWpCoQ75Md5HRvst-104" value="INTERRUPT" style="ellipse;whiteSpace=wrap;html=1;aspect=fixed;dashed=1;fillColor=#f8cecc;strokeColor=#b85450;" vertex="1" parent="1">
          <mxGeometry x="640" y="480" width="80" height="80" as="geometry" />
        </mxCell>
        <mxCell id="hMOZLWpCoQ75Md5HRvst-111" style="edgeStyle=orthogonalEdgeStyle;rounded=0;orthogonalLoop=1;jettySize=auto;html=1;exitX=0.5;exitY=0;exitDx=0;exitDy=0;entryX=0.5;entryY=1;entryDx=0;entryDy=0;fillColor=#f8cecc;strokeColor=#b85450;dashed=1;" edge="1" parent="1" source="hMOZLWpCoQ75Md5HRvst-108" target="hMOZLWpCoQ75Md5HRvst-109">
          <mxGeometry relative="1" as="geometry" />
        </mxCell>
        <mxCell id="hMOZLWpCoQ75Md5HRvst-108" value="INTERRUPT" style="ellipse;whiteSpace=wrap;html=1;aspect=fixed;dashed=1;fillColor=#f8cecc;strokeColor=#b85450;" vertex="1" parent="1">
          <mxGeometry x="334" y="680" width="80" height="80" as="geometry" />
        </mxCell>
        <mxCell id="hMOZLWpCoQ75Md5HRvst-109" value="load Config" style="rounded=0;whiteSpace=wrap;html=1;fillColor=#f8cecc;strokeColor=#b85450;dashed=1;" vertex="1" parent="1">
          <mxGeometry x="314" y="585" width="120" height="60" as="geometry" />
        </mxCell>
        <mxCell id="hMOZLWpCoQ75Md5HRvst-112" style="edgeStyle=orthogonalEdgeStyle;rounded=0;orthogonalLoop=1;jettySize=auto;html=1;exitX=0;exitY=0.25;exitDx=0;exitDy=0;entryX=1.001;entryY=0.934;entryDx=0;entryDy=0;entryPerimeter=0;fillColor=#f8cecc;strokeColor=#b85450;dashed=1;" edge="1" parent="1" source="hMOZLWpCoQ75Md5HRvst-109" target="hMOZLWpCoQ75Md5HRvst-3">
          <mxGeometry relative="1" as="geometry" />
        </mxCell>
        <mxCell id="hMOZLWpCoQ75Md5HRvst-114" value="" style="endArrow=classic;html=1;rounded=0;entryX=0;entryY=0.5;entryDx=0;entryDy=0;exitX=0.998;exitY=0.967;exitDx=0;exitDy=0;exitPerimeter=0;fillColor=#f8cecc;strokeColor=#b85450;dashed=1;" edge="1" parent="1" source="hMOZLWpCoQ75Md5HRvst-3" target="hMOZLWpCoQ75Md5HRvst-109">
          <mxGeometry width="50" height="50" relative="1" as="geometry">
            <mxPoint x="290" y="560" as="sourcePoint" />
            <mxPoint x="340" y="510" as="targetPoint" />
          </mxGeometry>
        </mxCell>
        <mxCell id="hMOZLWpCoQ75Md5HRvst-115" value="" style="endArrow=classic;html=1;rounded=0;entryX=0;entryY=0.5;entryDx=0;entryDy=0;exitX=1;exitY=0.5;exitDx=0;exitDy=0;fillColor=#f8cecc;strokeColor=#b85450;dashed=1;" edge="1" parent="1" source="hMOZLWpCoQ75Md5HRvst-109" target="hMOZLWpCoQ75Md5HRvst-39">
          <mxGeometry width="50" height="50" relative="1" as="geometry">
            <mxPoint x="150" y="800" as="sourcePoint" />
            <mxPoint x="200" y="750" as="targetPoint" />
            <Array as="points">
              <mxPoint x="470" y="615" />
              <mxPoint x="470" y="720" />
            </Array>
          </mxGeometry>
        </mxCell>
      </root>
    </mxGraphModel>
  </diagram>
</mxfile>
